<?xml version="1.0" encoding="utf-8"?>
<!-- Generator: Adobe Illustrator 26.0.2, SVG Export Plug-In . SVG Version: 6.00 Build 0)  -->
<svg version="1.1" id="Layer_1" xmlns="http://www.w3.org/2000/svg" xmlns:xlink="http://www.w3.org/1999/xlink" x="0px" y="0px"
	 viewBox="0 0 642.7 154.8" style="enable-background:new 0 0 642.7 154.8;" xml:space="preserve">
<style type="text/css">
	.st0{fill:#04388D;}
</style>
<path class="st0" d="M391.7,94.1l-8.7,26.9l50.9-0.6c13.4-0.2,25.5-8.7,29.5-21.6c1.1-3.6,1.9-7.4,2-11.4
	c0.4-16.8-13.1-34.2-29.8-34.2l-77.3,1.2l-7.2,28.8l-17.6-28.9l-33.5-0.3l-27.4,95.6h30.6l16.5-67.3c0,0,22.2,19.1,17.6,53.2
	l26.6-0.1l14.1-54.4l57.4-0.6c0,0,8.5,7.1-0.7,14.1L391.7,94.1z"/>
<path class="st0" d="M193.6,53.2l-5.9,24l62.4,1.1c3,0.1,5.9,1.7,7.1,4.4c1,2.1,1.6,6-1.4,8.8c-2.4,2.2-4.7,2.1-7.3,2.1h-82.5
	l21.6-80.9h-26.5l-28.6,108h113.1c14.4,0,27.7-8.1,33.6-21.2c3.9-8.6,4.6-20.3-3.4-31.3c-6.9-9.6-18.2-14.9-30-14.9H193.6z"/>
<polygon class="st0" points="201.9,12.7 198.8,23.1 306.8,23.1 312.5,12.7 "/>
<polygon class="st0" points="306.8,29.6 300.7,45.9 195.1,45.9 200.5,29.6 "/>
<path class="st0" d="M119.8,25.6l26.9,0.1l-19.2,74.7c-1.4,5-3.8,9.7-7.4,13.5c-3.3,3.6-8.1,7.5-14.6,8c-12.6,1-61.4,0.8-83.1,0.3
	C8.8,121.8-1.8,109.6,0.3,96.1c0.1-0.4,0.1-0.8,0.2-1.2c3.8-20.2,15.9-62.3,15.9-62.3l27.5,0.3l-13,47.5c0,0-3.5,12.5,6.8,13.9
	c8,1.1,42.4,1.2,57.1,0.9c4.3-0.1,8.3-3,10-7L119.8,25.6z"/>
<circle class="st0" cx="78.3" cy="54.6" r="15.7"/>
<path class="st0" d="M645.5,86.1V69.5h-12.6c-0.3-2.9-0.8-5.7-1.5-8.5l12-4.8l-6.1-15.4l-12,4.8c-1.3-2.4-2.8-4.7-4.4-6.9l9.6-8.9
	l-11.2-12.2l-9.8,9l0,0.1c-2.3-1.9-4.8-3.7-7.4-5.3l5.2-11.4l-15.1-6.9l-5.3,11.6c-3-0.9-6.1-1.6-9.2-2V0h-16.6v12.6
	c-3.1,0.4-6.2,0.9-9.2,1.7l-4.7-11.8l-15.4,6.1l4.7,11.9c-2.5,1.4-4.9,3-7.2,4.7l-8.8-8.8l-11.7,11.7l8.7,8.7c-1.5,1.9-3,4-4.3,6.1
	l-12-5.2L494.4,53l11.8,5.2c-1.1,3.5-1.8,7.1-2.3,10.8h-12.8v16.6H504c0.4,3.1,1,6.2,1.9,9.2l-12,5.3l6.7,15.2l11.8-5.2
	c1.2,2.1,2.5,4.1,4,6l-9.1,9.1l11.7,11.7l8.9-8.9c2.6,2.1,5.5,4,8.4,5.7l-5.1,11.7l15.2,6.7l5.3-12c3.3,0.9,6.8,1.5,10.3,1.8v13.1
	h16.6v-13.4h-1.8c3.6-0.5,7-1.2,10.4-2.2l5.2,11.7l15.2-6.7l-5.2-11.8c2.3-1.4,4.5-2.9,6.5-4.6l9,9l11.7-11.7l-9.2-9.2
	c1.5-2,2.9-4.1,4.2-6.3l11.5,5l6.7-15.2L631,94.3c0.7-2.6,1.3-5.4,1.7-8.1H645.5z M596,102.2c-0.1,10.6-7,20.1-17.2,23.2
	c-4.9,1.5-10.8,2.1-17.4,0.5c-0.4-0.1-0.9-0.2-1.3-0.3c-11.5-3.1-19.5-13.8-19.7-25.7c-0.3-13.8-0.1-40.4,1.7-49.7
	c2.8-14.8,24.8-14,24.8-14l0.1,14.8c-3.1,1-5.4,3.9-5.4,7.3c0,3.4,2.3,6.4,5.4,7.3l0.1,16.7h4.8l-0.2-16.8c2.9-1.1,5-3.9,5-7.1
	c0-3.3-2.2-6.2-5.2-7.2l0-0.4l0-14.4c0.4-0.1,24.2-2.4,24.7,21.5L596,102.2z"/>
</svg>
